<svg xmlns="http://www.w3.org/2000/svg" >

   <!-- logo -->
   <symbol viewBox="0 0 24 24" id="logo">
      <polygon points="0.54 9 5 10.98 7 11.87 12 14.09 17 11.87 19 10.98 20 10.54 20 16 22 16 22 9.65 23.46 9 12 3.91 0.54 9"/>
      <path d="M18.45,18.89l.55-.27V13.17l-7,3.11L5,13.17v5.45l.55.27a14.45,14.45,0,0,0,12.9,0Z"/>
   </symbol>

   <!-- corner -->
   <symbol viewBox="0 0 50 50" fill="none" id="corner">
      <path d="M0 0V0C0.843013 27.2574 22.7426 49.157 50 50V50H0V0Z" fill="currentColor"/>
   </symbol>

   <!-- home -->
   <symbol viewBox="0 0 576 512" id="home">
      <path d="M280.37 148.26L96 300.11V464a16 16 0 0 0 16 16l112.06-.29a16 16 0 0 0 15.92-16V368a16 16 0 0 1 16-16h64a16 16 0 0 1 16 16v95.64a16 16 0 0 0 16 16.05L464 480a16 16 0 0 0 16-16V300L295.67 148.26a12.19 12.19 0 0 0-15.3 0zM571.6 251.47L488 182.56V44.05a12 12 0 0 0-12-12h-56a12 12 0 0 0-12 12v72.61L318.47 43a48 48 0 0 0-61 0L4.34 251.47a12 12 0 0 0-1.6 16.9l25.5 31A12 12 0 0 0 45.15 301l235.22-193.74a12.19 12.19 0 0 1 15.3 0L530.9 301a12 12 0 0 0 16.9-1.6l25.5-31a12 12 0 0 0-1.7-16.93z"/>
   </symbol>

    <!-- bookmark -->
   <symbol viewBox="0 0 16 16" fill="currentColor" id="bookmark">
     <path d="M2 15.5V2a2 2 0 0 1 2-2h8a2 2 0 0 1 2 2v13.5a.5.5 0 0 1-.74.439L8 13.069l-5.26 2.87A.5.5 0 0 1 2 15.5zm8.854-9.646a.5.5 0 0 0-.708-.708L7.5 7.793 6.354 6.646a.5.5 0 1 0-.708.708l1.5 1.5a.5.5 0 0 0 .708 0l3-3z" fill-rule="evenodd"/>
   </symbol>  

    <!-- add question -->
   <symbol viewBox="0 0 16 16" fill="currentColor" id="add">
     <path d="M16 8A8 8 0 1 1 0 8a8 8 0 0 1 16 0zM8.5 4.5a.5.5 0 0 0-1 0v3h-3a.5.5 0 0 0 0 1h3v3a.5.5 0 0 0 1 0v-3h3a.5.5 0 0 0 0-1h-3v-3z"/>
   </symbol>   

    <!-- profile -->
   <symbol viewBox="0 0 48 48" fill="currentColor" id="profile">
      <circle cx="24" cy="17" fill="currentColor" r="6"/><path d="M24,0C10.745,0,0,10.745,0,24s10.745,24,24,24s24-10.745,24-24S37.255,0,24,0z M35.812,40.113v-3.301  C35.812,30.289,30.523,25,24,25c-6.524,0-11.812,5.289-11.812,11.812v3.301C7.231,36.473,4,30.621,4,24C4,12.954,12.954,4,24,4  s20,8.954,20,20C44,30.621,40.769,36.473,35.812,40.113z" fill="currentColor"/>  
   </symbol>   

    <!-- questions -->
   <symbol viewBox="0 0 16 16" fill="currentColor" id="questions">
      <path d="M5.933.87a2.89 2.89 0 0 1 4.134 0l.622.638.89-.011a2.89 2.89 0 0 1 2.924 2.924l-.01.89.636.622a2.89 2.89 0 0 1 0 4.134l-.637.622.011.89a2.89 2.89 0 0 1-2.924 2.924l-.89-.01-.622.636a2.89 2.89 0 0 1-4.134 0l-.622-.637-.89.011a2.89 2.89 0 0 1-2.924-2.924l.01-.89-.636-.622a2.89 2.89 0 0 1 0-4.134l.637-.622-.011-.89a2.89 2.89 0 0 1 2.924-2.924l.89.01.622-.636zM7.002 11a1 1 0 1 0 2 0 1 1 0 0 0-2 0zm1.602-2.027c.04-.534.198-.815.846-1.26.674-.475 1.05-1.09 1.05-1.986 0-1.325-.92-2.227-2.262-2.227-1.02 0-1.792.492-2.1 1.29A1.71 1.71 0 0 0 6 5.48c0 .393.203.64.545.64.272 0 .455-.147.564-.51.158-.592.525-.915 1.074-.915.61 0 1.03.446 1.03 1.084 0 .563-.208.885-.822 1.325-.619.433-.926.914-.926 1.64v.111c0 .428.208.745.585.745.336 0 .504-.24.554-.627z"/>
   </symbol>  

</svg>